<?xml version="1.0" encoding="utf-8"?>
<!-- Generator: Adobe Illustrator 24.2.1, SVG Export Plug-In . SVG Version: 6.00 Build 0)  -->
<svg version="1.1" id="Layer_1" xmlns="http://www.w3.org/2000/svg" xmlns:xlink="http://www.w3.org/1999/xlink" x="0px" y="0px"
	 viewBox="0 0 600 600" style="enable-background:new 0 0 600 600;" xml:space="preserve">
<style type="text/css">
	.st0{fill:#FFFFFF;}
</style>
<g>
	<path class="st0" d="M426,232.5h-18v-90h-36v45h-18v-54c0-5,4-9,9-9h54c5,0,9,4,9,9V232.5z"/>
	<path class="st0" d="M443.5,247.1L312.3,132.3c-3.3-2.9-7.7-4.5-12.3-4.5s-9,1.6-12.3,4.5L156.5,247.1c-5.5,4.8-9.5,13.6-9.5,20.9
		v190c0,9.7,7.9,17.5,17.5,17.5H201h36.5h125h22.7h50.3c9.7,0,17.5-7.9,17.5-17.5V268C453,260.7,449,251.9,443.5,247.1z M345,457.5
		h-90v-99h90V457.5z M435,457.5h-49.8H363V358c0-9.7-7.9-17.5-17.5-17.5h-91c-9.7,0-17.5,7.9-17.5,17.5v99.5h-36h-36V268
		c0-2.1,1.8-6,3.3-7.3l131.2-114.8c0.1,0,0.2-0.1,0.5-0.1s0.4,0.1,0.5,0.1l131.2,114.8c1.6,1.4,3.3,5.3,3.3,7.3V457.5z"/>
</g>
</svg>
