<?xml version="1.0" encoding="utf-8"?>
<!-- Generator: Adobe Illustrator 24.2.1, SVG Export Plug-In . SVG Version: 6.00 Build 0)  -->
<svg version="1.1" id="Layer_1" xmlns="http://www.w3.org/2000/svg" xmlns:xlink="http://www.w3.org/1999/xlink" x="0px" y="0px"
	 viewBox="0 0 600 600" style="enable-background:new 0 0 600 600;" xml:space="preserve">
<style type="text/css">
	.st0{fill:#FFFFFF;}
</style>
<g>
	<g>
		<path class="st0" d="M546.3,147c8.1,0,14.7-6.6,14.7-14.7v-24.7c0-8.1-6.6-14.7-14.7-14.7H53.7C45.6,93,39,99.6,39,107.7v24.7
			c0,8.1,6.6,14.7,14.7,14.7H66v270H44.7c-3.1,0-5.7,2.5-5.7,5.7v6.7c0,3.1,2.5,5.7,5.7,5.7H66h225v21.3c0,3.1,2.5,5.7,5.7,5.7h6.7
			c3.1,0,5.7-2.5,5.7-5.7V435h225h21.3c3.1,0,5.7-2.5,5.7-5.7v-6.7c0-3.1-2.5-5.7-5.7-5.7H534V147H546.3z M516,417H84V147h432V417z
			 M66,129h-9v-18h486v18h-9H66z"/>
		<path class="st0" d="M143.7,399h24.7c8.1,0,14.7-6.6,14.7-14.7v-72.2c0-8.1-6.6-14.7-14.7-14.7h-24.7c-8.1,0-14.7,6.6-14.7,14.7
			v72.2C129,392.4,135.6,399,143.7,399z M147,315.5h18V381h-18V315.5z"/>
		<path class="st0" d="M215.7,399h24.7c8.1,0,14.7-6.6,14.7-14.7V267.1c0-8.1-6.6-14.7-14.7-14.7h-24.7c-8.1,0-14.7,6.6-14.7,14.7
			v117.2C201,392.4,207.6,399,215.7,399z M219,270.5h18V381h-18V270.5z"/>
		<path class="st0" d="M287.7,399h24.7c8.1,0,14.7-6.6,14.7-14.7v-99.2c0-8.1-6.6-14.7-14.7-14.7h-24.7c-8.1,0-14.7,6.6-14.7,14.7
			v99.2C273,392.4,279.6,399,287.7,399z M291,288.5h18V381h-18V288.5z"/>
		<path class="st0" d="M431.7,399h24.7c8.1,0,14.7-6.6,14.7-14.7v-63.2c0-8.1-6.6-14.7-14.7-14.7h-24.7c-8.1,0-14.7,6.6-14.7,14.7
			v63.2C417,392.4,423.6,399,431.7,399z M435,324.5h18V381h-18V324.5z"/>
	</g>
	<g>
		<path class="st0" d="M300,453c-14.9,0-27,12.1-27,27s12.1,27,27,27s27-12.1,27-27S314.9,453,300,453z M300,489c-5,0-9-4-9-9
			s4-9,9-9s9,4,9,9S305,489,300,489z"/>
		<path class="st0" d="M384.3,198.5h-24.7c-8.1,0-14.7,6.6-14.7,14.7v171.2c0,8.1,6.6,14.7,14.7,14.7h24.7c8.1,0,14.7-6.6,14.7-14.7
			V213.1C399,205,392.4,198.5,384.3,198.5z M381,381h-18V216.5h18V381z"/>
	</g>
</g>
</svg>
