<?xml version="1.0" encoding="utf-8"?>
<!-- Generator: Adobe Illustrator 24.2.1, SVG Export Plug-In . SVG Version: 6.00 Build 0)  -->
<svg version="1.1" id="Layer_1" xmlns="http://www.w3.org/2000/svg" xmlns:xlink="http://www.w3.org/1999/xlink" x="0px" y="0px"
	 viewBox="0 0 600 600" style="enable-background:new 0 0 600 600;" xml:space="preserve">
<style type="text/css">
	.st0{fill:#FFFFFF;}
</style>
<g>
	<g>
		<rect x="327" y="120" class="st0" width="63" height="18"/>
		<rect x="444" y="120" class="st0" width="63" height="18"/>
	</g>
	<g>
		<path class="st0" d="M501.3,453h-51.7c-8.1,0-14.7-6.6-14.7-14.7v-51.7c0-8.1,6.6-14.7,14.7-14.7h51.7c8.1,0,14.7,6.6,14.7,14.7
			v51.7C516,446.4,509.4,453,501.3,453z M453,435h45v-45h-45V435z"/>
		<path class="st0" d="M384.3,453h-51.7c-8.1,0-14.7-6.6-14.7-14.7v-51.7c0-8.1,6.6-14.7,14.7-14.7h51.7c8.1,0,14.7,6.6,14.7,14.7
			v51.7C399,446.4,392.4,453,384.3,453z M336,435h45v-45h-45V435z"/>
		<path class="st0" d="M267.3,453h-51.7c-8.1,0-14.7-6.6-14.7-14.7v-51.7c0-8.1,6.6-14.7,14.7-14.7h51.7c8.1,0,14.7,6.6,14.7,14.7
			v51.7C282,446.4,275.4,453,267.3,453z M219,435h45v-45h-45V435z"/>
		<path class="st0" d="M150.3,453H98.7c-8.1,0-14.7-6.6-14.7-14.7v-51.7c0-8.1,6.6-14.7,14.7-14.7h51.7c8.1,0,14.7,6.6,14.7,14.7
			v51.7C165,446.4,158.4,453,150.3,453z M102,435h45v-45h-45V435z"/>
	</g>
	<path class="st0" d="M555.3,318l-39.3,0V89.7c0-8.1-6.6-14.7-14.7-14.7h-51.7c-8.1,0-14.7,6.6-14.7,14.7V318l-36,0V89.7
		c0-8.1-6.6-14.7-14.7-14.7h-51.7c-8.1,0-14.7,6.6-14.7,14.7V318l-23.3,0L181,204.3c-2.8-2.8-6.4-4.3-10.3-4.3
		c-8.1,0-14.7,6.6-14.7,14.7v90.6l-101-101c-2.8-2.8-6.4-4.3-10.3-4.3c-8.1,0-14.7,6.6-14.7,14.7v295.6c0,8.1,6.6,14.7,14.7,14.7
		h510.7c8.1,0,14.7-6.6,14.7-14.7V332.7C570,324.6,563.4,318,555.3,318z M453,93h45v225l-45,0V93z M336,93h45v225l-45,0V93z
		 M552,507H48V222.7l101,101c2.8,2.8,6.4,4.3,10.3,4.3h0c3.8,0,7.3-1.4,10.1-4c3-2.8,4.6-6.6,4.6-10.7v-90.6l109,109
		c2.8,2.8,6.5,4.3,10.4,4.3l24.7,0v0h81v0l36,0v0h81v0l36,0V507z"/>
	<path class="st0" d="M327,327"/>
</g>
</svg>
