<?xml version="1.0" encoding="utf-8"?>
<!-- Generator: Adobe Illustrator 24.2.1, SVG Export Plug-In . SVG Version: 6.00 Build 0)  -->
<svg version="1.1" id="Layer_1" xmlns="http://www.w3.org/2000/svg" xmlns:xlink="http://www.w3.org/1999/xlink" x="0px" y="0px"
	 viewBox="0 0 600 600" style="enable-background:new 0 0 600 600;" xml:space="preserve">
<style type="text/css">
	.st0{fill:#FFFFFF;}
</style>
<g>
	<g>
		<circle class="st0" cx="120" cy="371.2" r="9"/>
		<path class="st0" d="M321.3,308.2h-60.7c-3.1,0-5.7,2.6-5.7,5.7v6.7c0,3.1,2.6,5.7,5.7,5.7h60.7c3.1,0,5.7-2.6,5.7-5.7v-6.7
			C327,310.8,324.4,308.2,321.3,308.2z"/>
		<path class="st0" d="M321.3,344.2h-60.7c-3.1,0-5.7,2.6-5.7,5.7v6.7c0,3.1,2.6,5.7,5.7,5.7h60.7c3.1,0,5.7-2.6,5.7-5.7v-6.7
			C327,346.8,324.4,344.2,321.3,344.2z"/>
		<path class="st0" d="M321.3,380.2h-60.7c-3.1,0-5.7,2.6-5.7,5.7v6.7c0,3.1,2.6,5.7,5.7,5.7h60.7c3.1,0,5.7-2.6,5.7-5.7v-6.7
			C327,382.8,324.4,380.2,321.3,380.2z"/>
		<path class="st0" d="M501.3,308.2h-60.7c-3.1,0-5.7,2.6-5.7,5.7v6.7c0,3.1,2.6,5.7,5.7,5.7h60.7c3.1,0,5.7-2.6,5.7-5.7v-6.7
			C507,310.8,504.4,308.2,501.3,308.2z"/>
		<path class="st0" d="M501.3,344.2h-60.7c-3.1,0-5.7,2.6-5.7,5.7v6.7c0,3.1,2.6,5.7,5.7,5.7h60.7c3.1,0,5.7-2.6,5.7-5.7v-6.7
			C507,346.8,504.4,344.2,501.3,344.2z"/>
		<path class="st0" d="M501.3,380.2h-60.7c-3.1,0-5.7,2.6-5.7,5.7v6.7c0,3.1,2.6,5.7,5.7,5.7h60.7c3.1,0,5.7-2.6,5.7-5.7v-6.7
			C507,382.8,504.4,380.2,501.3,380.2z"/>
	</g>
	<path class="st0" d="M578.1,214.3l-89-46.5c-3.3-1.7-6.7-2.1-9-2.1c-2.4,0-6.1,0.4-9.5,2.3l-83,46.1c-0.1,0-0.4,0.1-0.7,0.1
		s-0.6,0-0.7-0.1l-83-46.1c-3.4-1.9-6.9-2.3-9.3-2.3s-6,0.4-9.3,2.3l-83,46.1c-0.1,0-0.4,0.1-0.7,0.1c-0.3,0-0.6,0-0.7-0.1l-83-46.1
		c-2.6-1.5-5.8-2.2-9.1-2.2c-3.5,0-7,0.9-9.7,2.5l-77.3,45.9c-5.4,3.2-9.3,10.1-9.3,16.3v188.9c0,8.1,6.6,14.7,14.7,14.7h63h51.7
		h92.3h114.7h65.3h114.7h45c8.1,0,14.7-6.6,14.7-14.7V230.6C588,224.2,583.9,217.3,578.1,214.3z M93,416.2v-90h45v90H93z M237,416.2
		v-126h108v126H237z M417,416.2v-126h108v126H417z M570,416.2h-27V286.9c0-8.1-6.6-14.7-14.7-14.7H413.7c-8.1,0-14.7,6.6-14.7,14.7
		v129.3h-36V286.9c0-8.1-6.6-14.7-14.7-14.7H233.7c-8.1,0-14.7,6.6-14.7,14.7v129.3h-63v-93.3c0-8.1-6.6-14.7-14.7-14.7H89.7
		c-8.1,0-14.7,6.6-14.7,14.7v93.3H30V230.8c0.1-0.3,0.4-0.8,0.6-1.1l77-45.8c0.2-0.1,1-0.1,1.2,0l82.9,46.1c3.4,1.9,6.9,2.3,9.3,2.3
		s6-0.4,9.3-2.3l83-46.1c0.1,0,0.4-0.1,0.7-0.1s0.6,0,0.7,0.1l83,46.1c3.4,1.9,6.9,2.3,9.3,2.3s6-0.4,9.3-2.3l83-46.2
		c0.1,0,0.4-0.1,0.9-0.1c0.4,0,0.7,0.1,0.8,0.1l88.6,46.3c0.1,0.2,0.3,0.5,0.4,0.7V416.2z"/>
</g>
</svg>
