<?xml version="1.0" encoding="utf-8"?>
<!-- Generator: Adobe Illustrator 24.2.1, SVG Export Plug-In . SVG Version: 6.00 Build 0)  -->
<svg version="1.1" id="Layer_1" xmlns="http://www.w3.org/2000/svg" xmlns:xlink="http://www.w3.org/1999/xlink" x="0px" y="0px"
	 viewBox="0 0 600 600" style="enable-background:new 0 0 600 600;" xml:space="preserve">
<style type="text/css">
	.st0{fill:#FFFFFF;}
</style>
<g>
	<g>
		<path class="st0" d="M404.7,399h78.7c8.1,0,14.7-6.6,14.7-14.7v-24.7c0-8.1-6.6-14.7-14.7-14.7h-78.7c-8.1,0-14.7,6.6-14.7,14.7
			v24.7C390,392.4,396.6,399,404.7,399z M408,363h72v18h-72V363z"/>
		<path class="st0" d="M555.3,309H323.7c-8.1,0-14.7,6.6-14.7,14.7v231.7c0,8.1,6.6,14.7,14.7,14.7h231.7c8.1,0,14.7-6.6,14.7-14.7
			V323.7C570,315.6,563.4,309,555.3,309z M552,552H327V327h225V552z"/>
		<path class="st0" d="M116.7,399h78.7c8.1,0,14.7-6.6,14.7-14.7v-24.7c0-8.1-6.6-14.7-14.7-14.7h-78.7c-8.1,0-14.7,6.6-14.7,14.7
			v24.7C102,392.4,108.6,399,116.7,399z M120,363h72v18h-72V363z"/>
		<path class="st0" d="M276.3,309H44.7c-8.1,0-14.7,6.6-14.7,14.7v231.7c0,8.1,6.6,14.7,14.7,14.7h231.7c8.1,0,14.7-6.6,14.7-14.7
			V323.7C291,315.6,284.4,309,276.3,309z M273,552H48V327h225V552z"/>
		<path class="st0" d="M339.3,66h-78.7c-8.1,0-14.7,6.6-14.7,14.7v24.7c0,8.1,6.6,14.7,14.7,14.7h78.7c8.1,0,14.7-6.6,14.7-14.7
			V80.7C354,72.6,347.4,66,339.3,66z M336,102h-72V84h72V102z"/>
		<path class="st0" d="M188.7,291h231.7c8.1,0,14.7-6.6,14.7-14.7V44.7c0-8.1-6.6-14.7-14.7-14.7H188.7c-8.1,0-14.7,6.6-14.7,14.7
			v231.7C174,284.4,180.6,291,188.7,291z M192,48h225v225H192V48z"/>
	</g>
	<g>
		<path class="st0" d="M394.6,201h-54.2c-2.4,0-4.4,2.5-4.4,5.7v6.7c0,3.1,2,5.7,4.4,5.7h54.2c2.4,0,4.4-2.5,4.4-5.7v-6.7
			C399,203.5,397,201,394.6,201z"/>
		<path class="st0" d="M394.6,237h-54.2c-2.4,0-4.4,2.5-4.4,5.7v6.7c0,3.1,2,5.7,4.4,5.7h54.2c2.4,0,4.4-2.5,4.4-5.7v-6.7
			C399,239.5,397,237,394.6,237z"/>
		<path class="st0" d="M529.6,480h-54.2c-2.4,0-4.4,2.5-4.4,5.7v6.7c0,3.1,2,5.7,4.4,5.7h54.2c2.4,0,4.4-2.5,4.4-5.7v-6.7
			C534,482.5,532,480,529.6,480z"/>
		<path class="st0" d="M529.6,516h-54.2c-2.4,0-4.4,2.5-4.4,5.7v6.7c0,3.1,2,5.7,4.4,5.7h54.2c2.4,0,4.4-2.5,4.4-5.7v-6.7
			C534,518.5,532,516,529.6,516z"/>
		<path class="st0" d="M250.6,480h-54.2c-2.4,0-4.4,2.5-4.4,5.7v6.7c0,3.1,2,5.7,4.4,5.7h54.2c2.4,0,4.4-2.5,4.4-5.7v-6.7
			C255,482.5,253,480,250.6,480z"/>
		<path class="st0" d="M250.6,516h-54.2c-2.4,0-4.4,2.5-4.4,5.7v6.7c0,3.1,2,5.7,4.4,5.7h54.2c2.4,0,4.4-2.5,4.4-5.7v-6.7
			C255,518.5,253,516,250.6,516z"/>
	</g>
</g>
</svg>
